# xmcd
#
# Track frame offsets:
# 150
# 11160
# 24588
# 39843
# 53708
# 69363
# 83998
# 97790
# 109274
# 124745
# 144695
# 159709
# 172177
# 186310
# 201283
# 215221
# 229060
# 241744
# 257358
# 273255
# 287468
# 303654
# 317970
#
# Disc length: 4439 seconds
#
#
# Revision: 0
# Processed by: cddbd v1.5.1PL2 Copyright (c) Steve Scherf et al.
# Submitted via: FreeRIP 2.945 
#
DISCID=4b115517
DTITLE=Various Artist - Corridos Famosos - Varios
DYEAR=1900
DGENRE=Corridos
TTITLE0=Intro
TTITLE1=Los Dos Amigos - Los Cadetes de Linares
TTITLE2=El Corrido de los Pérez - Los Huracanes del Norte
TTITLE3=El Federal de Caminos - Ramón Ayala y Los Bravos del Norte
TTITLE4=Asesino a Sueldo - Cardenales de Nuevo León
TTITLE5=Lamberto Quintero - Eliseo Robles
TTITLE6=Las Tres Tumbas - Los Cadetes de Linares
TTITLE7=Gerardo González - Ramón Ayala y Los Bravos del Norte
TTITLE8=Contrabando y Traición - Los Tigres del Norte
TTITLE9=El Ojo de Vidrio - Eliseo Robles
TTITLE10=El Último Cartucho - Invasores de Nuevo León
TTITLE11=Pistoleros Famosos - Carlos y José
TTITLE12=Nomás las Mujeres Quedan - Los Cadetes de Linares
TTITLE13=Chito Cano - Ramón Ayala y Los Bravos del Norte
TTITLE14=La Banda del Carro Rojo - Los Tigres del Norte
TTITLE15=Luis Pulido - Carlos y José
TTITLE16=El Asesino - Los Cadetes de Linares
TTITLE17=Joaquín Murrieta - Lorenzo de Montecarlo
TTITLE18=Laurita Garza - Los Huracanes del Norte
TTITLE19=Gabino Barrera - Hermanos Banda
TTITLE20=El Tahur - Los Tigres del Norte
TTITLE21=El Caballo Jovero - Los Cadetes de Linares
TTITLE22=El Caballo Blanco - Ramón Ayala y Los Bravos del Norte
EXTD=2001
EXTT0=
EXTT1=
EXTT2=
EXTT3=
EXTT4=
EXTT5=
EXTT6=
EXTT7=
EXTT8=
EXTT9=
EXTT10=
EXTT11=
EXTT12=
EXTT13=
EXTT14=
EXTT15=
EXTT16=
EXTT17=
EXTT18=
EXTT19=
EXTT20=
EXTT21=
EXTT22=
PLAYORDER=
